<?xml version="1.0"?>
<svg xmlns="http://www.w3.org/2000/svg" xmlns:xlink="http://www.w3.org/1999/xlink" xmlns:svgjs="http://svgjs.com/svgjs" version="1.1" width="512" height="512" x="0" y="0" viewBox="0 0 92.008 92.008" style="enable-background:new 0 0 512 512" xml:space="preserve"><g>
<g xmlns="http://www.w3.org/2000/svg">
	<path d="M46.005,21.672c5.975,0,10.836-4.861,10.836-10.836S51.98,0,46.005,0C40.03,0,35.169,4.861,35.169,10.836   S40.03,21.672,46.005,21.672z" fill="#ffffff" data-original="#000000" style=""/>
	<path d="M80.7,10.78L79.421,8.93c-0.555-0.802-1.468-1.281-2.443-1.281c-0.622,0-1.218,0.192-1.726,0.555l-22.381,16.01H39.137   L16.755,8.204c-0.507-0.363-1.104-0.555-1.726-0.555c-0.975,0-1.888,0.479-2.442,1.281l-1.28,1.851   c-0.935,1.354-0.608,3.233,0.73,4.191l22.552,16.132v26.235v0.503v29.166c0,2.757,2.243,5,5,5h0.352c2.757,0,5-2.243,5-5V60.842   h2.127v26.166c0,2.757,2.243,5,5,5h0.352c2.757,0,5-2.243,5-5V57.842v-0.503V31.103l22.552-16.133   C81.309,14.014,81.636,12.134,80.7,10.78z" fill="#ffffff" data-original="#000000" style=""/>
</g>
<g xmlns="http://www.w3.org/2000/svg">
</g>
<g xmlns="http://www.w3.org/2000/svg">
</g>
<g xmlns="http://www.w3.org/2000/svg">
</g>
<g xmlns="http://www.w3.org/2000/svg">
</g>
<g xmlns="http://www.w3.org/2000/svg">
</g>
<g xmlns="http://www.w3.org/2000/svg">
</g>
<g xmlns="http://www.w3.org/2000/svg">
</g>
<g xmlns="http://www.w3.org/2000/svg">
</g>
<g xmlns="http://www.w3.org/2000/svg">
</g>
<g xmlns="http://www.w3.org/2000/svg">
</g>
<g xmlns="http://www.w3.org/2000/svg">
</g>
<g xmlns="http://www.w3.org/2000/svg">
</g>
<g xmlns="http://www.w3.org/2000/svg">
</g>
<g xmlns="http://www.w3.org/2000/svg">
</g>
<g xmlns="http://www.w3.org/2000/svg">
</g>
</g></svg>
